# xmcd CD database file
#
# Track frame offsets:
#	182
#	25285
#	56280
#	79392
#	108375
#	130232
#	164827
#	197880
#	241877
#	284307
#
# Disc length: 4174 seconds
#
# Revision: 4
# Processed by: cddbd v1.5.2PL0 Copyright (c) Steve Scherf et al.
# Submitted via: CDex 1.70beta2
#
DISCID=8d104c0a
DTITLE=Yellow Jackets - Live Wires 1992
DYEAR=1992
DGENRE=Jazz
TTITLE0=Homecoming
TTITLE1=Bright Lights
TTITLE2=The Dream
TTITLE3=Freedomland
TTITLE4=Downtown
TTITLE5=Claire's Song
TTITLE6=Geraldine
TTITLE7=The Spin
TTITLE8=Wildlife
TTITLE9=Revelation
EXTD=YEAR: 1992
EXTT0=
EXTT1=
EXTT2=
EXTT3=
EXTT4=
EXTT5=
EXTT6=
EXTT7=
EXTT8=
EXTT9=
PLAYORDER=
